<?xml version="1.0" standalone="no"?>
<!DOCTYPE svg PUBLIC "-//W3C//DTD SVG 20010904//EN"
 "http://www.w3.org/TR/2001/REC-SVG-20010904/DTD/svg10.dtd">
<svg version="1.0" xmlns="http://www.w3.org/2000/svg"
 width="192.000000pt" height="192.000000pt" viewBox="0 0 192.000000 192.000000"
 preserveAspectRatio="xMidYMid meet">

<g transform="translate(0.000000,192.000000) scale(0.100000,-0.100000)"
fill="#000000" stroke="none">
<path d="M1145 1303 c-28 -7 -82 -50 -102 -79 -34 -53 -63 -157 -63 -230 0
-99 -21 -162 -75 -222 -75 -83 -113 -96 -295 -100 -182 -4 -185 -4 -168 -32
11 -17 24 -20 88 -21 41 0 82 -3 90 -7 24 -11 24 -59 0 -84 l-21 -23 20 -17
c12 -9 21 -21 21 -26 0 -13 29 -24 42 -15 7 4 8 1 3 -7 -6 -10 -4 -12 9 -7 10
4 15 3 11 -3 -3 -5 23 -18 57 -28 172 -54 345 -32 501 62 33 20 59 30 63 24 9
-14 55 0 81 24 22 21 23 21 43 3 18 -16 20 -16 20 -2 0 21 -1 21 45 1 20 -8
42 -13 48 -10 7 2 4 5 -5 5 -10 1 -18 5 -18 10 0 5 -9 13 -20 16 -11 3 -20 10
-20 15 0 11 158 90 184 91 19 1 20 2 2 6 -18 5 -18 6 4 23 l24 18 -39 34 c-21
18 -55 50 -76 70 -39 39 -59 41 -106 10 -22 -14 -23 -13 -23 17 0 17 0 34 0
39 -1 4 8 8 20 10 20 3 29 22 10 22 -5 0 -10 7 -10 16 0 11 -8 14 -27 12 -26
-3 -28 -7 -31 -53 -9 -115 -88 -191 -212 -202 -82 -8 -157 17 -216 70 l-48 44
19 58 c18 58 18 58 29 30 10 -23 12 -10 12 81 -1 107 0 110 38 182 21 40 53
83 70 95 41 29 145 36 200 13 l38 -16 -14 23 c-29 45 -139 78 -203 60z m437
-571 c11 -13 11 -14 -2 -7 -12 7 -12 5 1 -11 32 -38 32 -43 -3 -33 -18 6 -40
12 -48 14 -8 2 -25 7 -37 11 -13 3 -23 2 -23 -3 0 -4 -16 -17 -35 -27 -19 -10
-32 -22 -30 -26 3 -4 -7 -10 -21 -13 l-26 -5 29 27 c15 15 37 40 48 55 31 43
118 54 147 18z m-464 -113 c13 0 11 -2 -5 -9 -13 -5 -23 -13 -23 -18 0 -5 -73
-8 -161 -7 -135 2 -163 5 -170 18 -8 13 1 19 47 32 42 12 71 29 108 65 l50 48
68 -64 c38 -35 76 -64 86 -65z m-265 -83 c36 -23 126 -30 174 -12 42 15 42 15
30 -5 -6 -11 -23 -22 -37 -26 -14 -3 -29 -8 -35 -12 -5 -3 -14 -6 -20 -8 -5
-1 -21 -5 -34 -9 -20 -6 -23 -4 -18 9 5 13 1 17 -16 17 -12 0 -38 14 -57 30
-36 31 -27 41 13 16z"/>
<path d="M440 1292 c0 -4 9 -8 20 -8 11 0 20 4 20 8 0 4 -9 8 -20 8 -11 0 -20
-4 -20 -8z"/>
<path d="M570 1005 c0 -229 3 -295 13 -295 9 0 11 61 9 281 l-3 282 79 -5 c86
-6 129 -23 161 -64 12 -15 21 -21 21 -14 0 23 -75 88 -115 99 -22 6 -68 11
-102 11 l-63 0 0 -295z"/>
<path d="M1400 1233 c0 -39 -3 -78 -6 -87 -4 -11 -1 -16 10 -16 13 0 16 13 16
73 0 39 -5 79 -10 87 -7 10 -10 -7 -10 -57z"/>
<path d="M1060 1120 c0 -6 7 -10 15 -10 8 0 15 2 15 4 0 2 -7 6 -15 10 -8 3
-15 1 -15 -4z"/>
<path d="M1147 1063 c9 -7 20 -13 25 -13 4 0 8 6 8 13 0 6 -11 12 -25 12 -23
0 -24 -1 -8 -12z"/>
<path d="M868 975 c-15 -20 -16 -24 -2 -29 16 -6 28 14 22 38 -2 10 -7 8 -20
-9z"/>
<path d="M734 960 c-31 -12 -85 -82 -82 -105 4 -28 35 -31 43 -5 4 12 9 19 12
16 9 -9 43 14 43 29 0 7 6 16 13 18 10 4 10 6 0 6 -7 1 -13 5 -13 10 0 10 43
7 62 -5 7 -4 5 2 -5 13 -9 11 -14 23 -10 26 9 10 -38 7 -63 -3z"/>
<path d="M810 956 c0 -2 7 -6 15 -10 8 -3 15 -1 15 4 0 6 -7 10 -15 10 -8 0
-15 -2 -15 -4z"/>
<path d="M1284 894 c3 -9 6 -18 6 -20 0 -2 11 -4 25 -4 18 0 25 5 25 20 0 16
-7 20 -31 20 -24 0 -30 -3 -25 -16z"/>
<path d="M1318 797 c-8 -31 -11 -54 -7 -51 11 6 31 82 27 96 -2 6 -11 -14 -20
-45z"/>
<path d="M813 785 c0 -11 4 -12 14 -4 7 6 13 13 13 15 0 2 -6 4 -13 4 -8 0
-14 -7 -14 -15z"/>
</g>
</svg>
